PathFileType	4	(x/y/z)	S09_SL_Cal_T01
DataRate	CameraRate	NumFrames	NumMarkers	Units	OrigDataRate	OrigDataStartFrame	OrigNumFrames
240	240	5	51	mm	240	901	2400
Frame#	Time	Sternum			R.Acromium			L.Acromium			Top.Head			R.ASIS			L.ASIS			R.PSIS			L.PSIS			R.Great.Tro			L.Great.Tro			R.Iliac.Crest			L.Iliac.Crest			V.Sacral			R.Thigh.Upper.Post			R.Thigh.Lower.Ant			R.Thigh.Lower.Post			R.Thigh.Upper.Ant			R.Knee.Lat			R.Knee.Med			R.Shank.Upper.Post			R.Shank.Lower.Ant			R.Shank.Lower.Post			R.Shank.Upper.Ant			R.Ankle.Lat			R.Ankle.Med			R.Heel.Upper			R.Heel.Med			R.Heel.Lat			R.Toe.Lat			R.Toe.Med			R.Toe.Tip			L.Thigh.Upper.Post			L.Thigh.Lower.Ant			L.Thigh.Lower.Post			L.Thigh.Upper.Ant			L.Knee.Lat			L.Knee.Med			L.Shank.Upper.Post			L.Shank.Lower.Ant			L.Shank.Lower.Post			L.Shank.Upper.Ant			L.Ankle.Lat			L.Ankle.Med			L.Heel.Upper			L.Heel.Med			L.Heel.Lat			L.Toe.Lat			L.Toe.Med			L.Toe.Tip			Cervical.Spine			Back			
		X1	Y1	Z1	X2	Y2	Z2	X3	Y3	Z3	X4	Y4	Z4	X5	Y5	Z5	X6	Y6	Z6	X7	Y7	Z7	X8	Y8	Z8	X9	Y9	Z9	X10	Y10	Z10	X11	Y11	Z11	X12	Y12	Z12	X13	Y13	Z13	X14	Y14	Z14	X15	Y15	Z15	X16	Y16	Z16	X17	Y17	Z17	X18	Y18	Z18	X19	Y19	Z19	X20	Y20	Z20	X21	Y21	Z21	X22	Y22	Z22	X23	Y23	Z23	X24	Y24	Z24	X25	Y25	Z25	X26	Y26	Z26	X27	Y27	Z27	X28	Y28	Z28	X29	Y29	Z29	X30	Y30	Z30	X31	Y31	Z31	X32	Y32	Z32	X33	Y33	Z33	X34	Y34	Z34	X35	Y35	Z35	X36	Y36	Z36	X37	Y37	Z37	X38	Y38	Z38	X39	Y39	Z39	X40	Y40	Z40	X41	Y41	Z41	X42	Y42	Z42	X43	Y43	Z43	X44	Y44	Z44	X45	Y45	Z45	X46	Y46	Z46	X47	Y47	Z47	X48	Y48	Z48	X49	Y49	Z49	X50	Y50	Z50	X51	Y51	Z51	

901	3.75	574.12	1203.1	292.12	439.97	1454.4	444.12	439.32	1451.5	128.94	508.09	1748.9	290.89	536.62	1035.9	398.8	524.29	1032.8	152.53	313.64	1060.9	331.05	315.49	1061.7	241.36	453.66	952.26	474.73	443.48	947.19	90.431	446.56	1115.4	445.13	416.06	1126.9	122.38	295.39	1026.4	284.26	422.18	710.27	465.48	475.28	599.11	426.1	401.38	619.86	445.75	488.33	687.05	448.15	439.86	526.04	420	419.21	510.92	302.33	360.54	353.88	439.27	429.76	295.06	425.93	358.63	277.7	430.2	425.02	368.54	436.61	392.06	93.905	411.4	422.57	105.45	328.35	331.18	76.327	361.14	342.54	44.51	332.74	333.77	46.466	397.14	492.59	39.946	453.89	542.25	46.235	348.21	588.79	61.042	395.57	361.64	701.65	121.03	430.87	596.37	111.76	370.03	613.34	124.17	428.04	684.62	95.95	409.98	515.85	118.27	422.32	515.58	253.58	362.91	382.39	102.12	429.99	295.12	112.53	366.62	305.36	105.51	425.65	372.86	109.86	403.57	105.9	125.94	417.37	96.702	217.48	334.57	69.473	172.75	345.76	45.664	206.25	337.45	41.774	144.76	512.1	43.825	95.701	545.61	44.758	205.2	598.88	62.053	148.81	370.19	1501.1	297.92	310.83	1242.5	282.37
902	3.7542	574.13	1203.1	292.11	439.98	1454.4	444.13	439.33	1451.5	128.95	508.1	1748.9	290.9	536.64	1035.9	398.8	524.3	1032.8	152.52	313.66	1060.9	331.04	315.5	1061.7	241.35	453.68	952.25	474.73	443.5	947.19	90.423	446.58	1115.4	445.12	416.08	1126.9	122.37	295.41	1026.4	284.26	422.19	710.27	465.47	475.28	599.11	426.09	401.39	619.86	445.75	488.34	687.05	448.14	439.86	526.04	420	419.21	510.92	302.32	360.54	353.88	439.27	429.76	295.06	425.93	358.63	277.7	430.19	425.02	368.54	436.61	392.06	93.904	411.4	422.57	105.45	328.35	331.18	76.329	361.14	342.54	44.51	332.74	333.77	46.468	397.14	492.59	39.946	453.89	542.25	46.234	348.21	588.79	61.039	395.57	361.66	701.65	121.02	430.89	596.37	111.76	370.05	613.34	124.17	428.07	684.62	95.945	410	515.85	118.26	422.33	515.58	253.58	362.93	382.39	102.12	430	295.12	112.53	366.63	305.36	105.5	425.67	372.86	109.86	403.57	105.9	125.94	417.37	96.703	217.48	334.57	69.473	172.75	345.76	45.664	206.25	337.45	41.774	144.76	512.1	43.825	95.702	545.61	44.756	205.2	598.88	62.051	148.81	370.2	1501.1	297.93	310.84	1242.5	282.37
903	3.7583	574.15	1203.1	292.11	439.99	1454.4	444.14	439.34	1451.5	128.96	508.12	1748.9	290.91	536.65	1035.9	398.79	524.32	1032.8	152.51	313.68	1060.9	331.04	315.52	1061.7	241.34	453.7	952.25	474.74	443.52	947.19	90.415	446.59	1115.4	445.12	416.1	1126.9	122.37	295.42	1026.4	284.25	422.21	710.26	465.47	475.29	599.1	426.08	401.4	619.86	445.74	488.35	687.04	448.13	439.87	526.03	419.99	419.21	510.92	302.32	360.54	353.88	439.26	429.77	295.06	425.92	358.63	277.7	430.18	425.02	368.54	436.6	392.07	93.903	411.4	422.57	105.45	328.35	331.18	76.331	361.14	342.54	44.51	332.74	333.77	46.469	397.14	492.59	39.946	453.89	542.25	46.233	348.21	588.79	61.036	395.57	361.68	701.65	121.01	430.91	596.37	111.75	370.07	613.34	124.16	428.09	684.62	95.939	410.02	515.85	118.26	422.35	515.59	253.58	362.95	382.4	102.11	430.01	295.12	112.53	366.64	305.36	105.5	425.68	372.86	109.86	403.57	105.9	125.94	417.38	96.703	217.48	334.57	69.474	172.75	345.75	45.664	206.25	337.45	41.775	144.76	512.1	43.825	95.702	545.61	44.754	205.21	598.88	62.049	148.82	370.21	1501.1	297.94	310.86	1242.4	282.37
904	3.7625	574.16	1203.1	292.11	440	1454.3	444.15	439.36	1451.6	128.96	508.14	1748.9	290.91	536.67	1035.9	398.78	524.34	1032.8	152.51	313.69	1060.9	331.03	315.54	1061.7	241.33	453.73	952.25	474.74	443.54	947.19	90.408	446.61	1115.4	445.11	416.12	1126.9	122.36	295.44	1026.4	284.24	422.22	710.26	465.47	475.3	599.1	426.07	401.41	619.86	445.74	488.36	687.04	448.13	439.87	526.03	419.98	419.22	510.92	302.31	360.55	353.88	439.25	429.77	295.06	425.92	358.63	277.7	430.18	425.03	368.54	436.59	392.07	93.902	411.39	422.57	105.45	328.35	331.18	76.333	361.13	342.55	44.51	332.74	333.77	46.47	397.14	492.59	39.947	453.89	542.25	46.231	348.21	588.79	61.032	395.57	361.7	701.65	121	430.94	596.37	111.75	370.09	613.34	124.15	428.11	684.62	95.934	410.04	515.85	118.26	422.36	515.59	253.57	362.96	382.4	102.1	430.03	295.12	112.53	366.66	305.37	105.5	425.7	372.87	109.86	403.58	105.9	125.94	417.38	96.704	217.48	334.57	69.474	172.75	345.75	45.664	206.25	337.45	41.776	144.77	512.1	43.825	95.702	545.61	44.753	205.21	598.88	62.048	148.82	370.22	1501.1	297.95	310.88	1242.4	282.37
905	3.7667	574.18	1203.1	292.11	440.01	1454.3	444.16	439.37	1451.6	128.97	508.16	1748.9	290.92	536.69	1035.9	398.77	524.36	1032.8	152.5	313.71	1060.9	331.03	315.55	1061.7	241.32	453.75	952.25	474.74	443.56	947.19	90.4	446.63	1115.4	445.11	416.14	1126.9	122.35	295.46	1026.4	284.24	422.23	710.26	465.47	475.31	599.1	426.07	401.42	619.86	445.74	488.37	687.04	448.12	439.88	526.03	419.98	419.22	510.92	302.31	360.55	353.88	439.25	429.77	295.06	425.92	358.63	277.7	430.17	425.03	368.54	436.59	392.07	93.901	411.39	422.58	105.45	328.35	331.18	76.335	361.13	342.55	44.51	332.74	333.77	46.471	397.14	492.59	39.947	453.89	542.25	46.23	348.21	588.79	61.029	395.57	361.72	701.65	120.99	430.96	596.37	111.74	370.11	613.34	124.14	428.14	684.62	95.929	410.06	515.85	118.25	422.37	515.59	253.57	362.98	382.4	102.1	430.04	295.12	112.53	366.67	305.37	105.49	425.71	372.87	109.85	403.58	105.9	125.94	417.38	96.704	217.48	334.57	69.475	172.75	345.75	45.663	206.25	337.45	41.776	144.77	512.1	43.825	95.703	545.61	44.751	205.21	598.88	62.046	148.82	370.23	1501.1	297.97	310.89	1242.4	282.37
